<?xml version="1.0"?>
<svg xmlns="http://www.w3.org/2000/svg" xmlns:xlink="http://www.w3.org/1999/xlink" xmlns:svgjs="http://svgjs.com/svgjs" version="1.1" width="512" height="512" x="0" y="0" viewBox="0 0 512 512" style="enable-background:new 0 0 512 512" xml:space="preserve" class=""><g><g xmlns="http://www.w3.org/2000/svg"><g><g><path d="m105.568 107.759c-1.678-.281-3.374-.399-5.065-.381 1.288-8.227-.988-16.562-6.328-22.994-5.525-6.655-13.656-10.472-22.306-10.472-10.738 0-20.411 5.898-25.426 15.078-1.685-.302-3.406-.465-5.15-.465-13.967 0-25.955 9.967-28.505 23.698l-12.662 68.163c-.084.452-.126.91-.126 1.37v128.542c0 12.642 4.595 24.834 12.939 34.332l65.209 74.22c4.161 4.735 6.452 10.815 6.452 17.12v19.27c0 4.142 3.358 7.5 7.5 7.5s7.5-3.358 7.5-7.5v-19.27c0-9.951-3.617-19.547-10.184-27.021l-65.208-74.219c-5.938-6.759-9.208-15.436-9.208-24.432v-127.852l12.535-67.483c1.23-6.627 7.017-11.438 13.757-11.438 4.175 0 8.099 1.842 10.766 5.054s3.756 7.408 2.989 11.511l-11.165 59.688c-.085.455-.128.917-.128 1.379v28.485l-13.667 46.572c-3.241 10.419-1.572 21.559 4.583 30.573l50.379 73.776c1.453 2.127 3.806 3.271 6.201 3.271 1.457 0 2.929-.424 4.223-1.307 3.42-2.336 4.3-7.002 1.964-10.423l-50.38-73.774c-3.563-5.218-4.524-11.669-2.635-17.699.014-.043.026-.086.039-.13l17.911-61.03c2.253-7.675 9.646-12.563 17.597-11.622 4.564.541 8.569 2.885 11.277 6.599 2.708 3.713 3.713 8.243 2.833 12.753l-9.221 47.23c-.656 3.36 1.046 6.737 4.137 8.208.07.034 7.153 3.417 17.543 9.366 3.594 2.058 8.177.813 10.235-2.782s.813-8.177-2.782-10.235c-5.485-3.141-10.077-5.592-13.32-7.269l8.13-41.644c.74-3.79.756-7.657.1-11.401l19.129-52.371c2.968-8.125 2.172-17.072-2.184-24.545-4.356-7.473-11.747-12.576-20.278-13.999zm-46.268 71.173 10.49-56.083c1.59-8.502-.667-17.196-6.192-23.851-1.087-1.31-2.279-2.505-3.552-3.587 2.521-3.984 6.946-6.498 11.822-6.498 4.175 0 8.099 1.842 10.766 5.054s3.756 7.408 2.989 11.511l-11.165 59.688c-.085.455-.128.917-.128 1.379v6.403c-5.524.647-10.689 2.745-15.03 5.984zm54.64-37.775-14.592 39.949c-2.916-2.699-6.32-4.825-10.018-6.257v-7.609l8.327-44.52c1.777-.409 3.629-.469 5.442-.165 4.118.687 7.685 3.149 9.787 6.756s2.487 7.925 1.054 11.846z" fill="#42c4d9" data-original="#000000" style="" class=""/><path d="m144.936 278.791c-3.365-2.415-8.052-1.644-10.466 1.722s-1.643 8.052 1.722 10.466c25.133 18.03 55.092 45.482 55.092 73.873v90.386c0 4.142 3.358 7.5 7.5 7.5s7.5-3.358 7.5-7.5v-90.386c0-27.902-20.64-56.857-61.348-86.061z" fill="#42c4d9" data-original="#000000" style="" class=""/><path d="m511.874 180.386-12.661-68.163c-2.55-13.731-14.539-23.698-28.505-23.698-1.751 0-3.479.164-5.171.469-5.017-9.103-14.736-15.082-25.405-15.082-8.65 0-16.781 3.817-22.306 10.472-5.341 6.432-7.617 14.767-6.328 22.995-1.691-.017-3.386.1-5.064.38-8.532 1.423-15.923 6.526-20.279 14s-5.152 16.42-2.184 24.545l19.129 52.371c-.656 3.743-.64 7.61.1 11.4l8.127 41.629c-22.212 11.418-105.61 57.967-105.61 113.148v90.386c0 4.142 3.358 7.5 7.5 7.5s7.5-3.358 7.5-7.5v-90.386c0-26.952 27.242-53.055 50.095-70.208 25.743-19.321 51.933-31.88 52.194-32.005 3.089-1.472 4.792-4.85 4.137-8.208l-9.221-47.231c-.88-4.51.125-9.04 2.833-12.753 2.708-3.714 6.713-6.058 11.277-6.599 7.949-.94 15.345 3.947 17.598 11.622l17.911 61.03c.013.043.025.087.039.13 1.889 6.03.928 12.481-2.635 17.699l-50.379 73.776c-2.335 3.421-1.456 8.087 1.964 10.423 3.42 2.335 8.086 1.456 10.423-1.964l50.379-73.776c6.156-9.015 7.825-20.154 4.583-30.574l-13.678-46.609c.002-.073.011-.145.011-.218v-28.229c0-.462-.043-.924-.128-1.379l-2.027-10.835c-.761-4.071-4.678-6.754-8.751-5.993-4.072.762-6.755 4.68-5.993 8.751l1.353 7.235c-4.341-3.239-9.507-5.339-15.031-5.987v-6.405c0-.462-.043-.924-.128-1.379l-11.165-59.688c-.768-4.104.322-8.299 2.989-11.511s6.591-5.054 10.766-5.054c4.845 0 9.282 2.554 11.807 6.511-1.267 1.079-2.454 2.27-3.537 3.575-5.526 6.655-7.783 15.349-6.192 23.851l2.53 13.527c.762 4.072 4.682 6.758 8.751 5.993 4.072-.762 6.755-4.68 5.993-8.751l-2.53-13.527c-.768-4.104.322-8.299 2.989-11.511s6.591-5.054 10.766-5.054c6.741 0 12.527 4.81 13.757 11.438l12.533 67.481v127.852c0 8.996-3.27 17.673-9.208 24.432l-65.208 74.218c-6.568 7.474-10.185 17.07-10.185 27.021v19.27c0 4.142 3.358 7.5 7.5 7.5s7.5-3.358 7.5-7.5v-19.27c0-6.305 2.292-12.384 6.453-17.12l65.208-74.219c8.344-9.498 12.939-21.69 12.939-34.332v-128.542c.001-.46-.041-.918-.125-1.37zm-99.222.72-14.592-39.949c-1.433-3.921-1.048-8.239 1.054-11.846s5.669-6.07 9.787-6.756c1.813-.301 3.664-.242 5.442.166l8.327 44.52v7.609c-3.698 1.431-7.102 3.557-10.018 6.256z" fill="#42c4d9" data-original="#000000" style="" class=""/><path d="m279.173 289.333v-10.951c3.47.189 6.996.298 10.591.298 2.889 0 5.828-.064 8.796-.195.478-.021.95-.057 1.412-.106 11.876-1.264 20.766-11.606 20.238-23.546-.431-9.767-7.017-17.841-15.838-20.629l-.043-23.048c-.011-16.667 10.509-31.682 26.177-37.361l.485-.176c10.426-3.779 17.43-13.718 17.43-24.732v-22.958c0-7.397-4.296-14.27-10.945-17.51l-22.612-11.02-1.703-9.388c-2.325-12.82-12.042-22.948-24.755-25.803l-23.412-5.256c-3.167-4.456-8.229-7.333-13.951-7.592-33.152-1.5-53.013 14.684-61.904 24.465-5.335 5.868-6.201 14.71-2.105 21.501.145.24.297.485.452.732l-7.056 26.557c-1.063 4.003 1.319 8.111 5.323 9.174.645.171 1.293.253 1.931.253 3.317 0 6.352-2.218 7.244-5.576l4.684-17.631c6.625 4.619 15.724 8.176 28.057 8.175 3.47 0 7.199-.282 11.196-.9 11.631-1.8 20.219-6.8 25.523-14.862 5.609-8.524 6.383-18.758 5.364-27.854l15.37 3.45c6.821 1.532 12.035 6.966 13.282 13.844l2.381 13.127c.426 2.351 1.947 4.357 4.094 5.404l26.028 12.684c1.529.745 2.517 2.325 2.517 4.026v22.958c0 4.797-2.96 8.969-7.541 10.629l-.485.176c-21.588 7.826-36.083 28.511-36.067 51.483l.042 22.135c-27.801-.075-54.03-7.775-78.048-22.978-19.519-12.355-30.396-25.479-30.463-25.56-.348-.433-.724-.831-1.097-1.232l5.931-22.323c1.063-4.003-1.319-8.111-5.323-9.174-4.005-1.063-8.111 1.319-9.174 5.323l-5.09 19.16c-5.896-.765-12.08.749-17.073 4.739-9.767 7.805-11.363 22.101-3.559 31.868 1.986 2.486 43.87 53.794 118.699 63.842v12.359c-12.762 3.332-22.208 14.956-22.208 28.748 0 16.382 13.327 29.709 29.708 29.709 16.382 0 29.709-13.327 29.709-29.709-.003-13.792-9.45-25.417-22.212-28.749zm-27.319-196.331c-2.917 4.434-7.917 7.143-15.286 8.284-3.162.489-6.079.713-8.776.713-15.63-.001-23.755-7.521-27.915-14.419-.698-1.158-.55-2.665.359-3.665 6.805-7.486 21.698-19.651 46.584-19.651 1.159 0 2.34.026 3.542.081 1.393.063 2.568 1.029 2.924 2.403 1.672 6.452 3.708 18.444-1.432 26.254zm-94.662 110.766c-2.642-3.306-2.101-8.145 1.204-10.786 1.405-1.123 3.09-1.67 4.768-1.67 2.257 0 4.504.991 6.042 2.904.499.609 12.454 15.092 34.094 28.789 28.72 18.179 60.316 26.646 93.92 25.161 4.25-.18 7.818 3.101 8.005 7.328.179 4.041-2.826 7.541-6.847 7.969-.159.017-.319.029-.481.036-88.808 3.917-138.627-57.13-140.705-59.731zm114.481 129.022c-8.11 0-14.708-6.599-14.708-14.709s6.598-14.708 14.708-14.708 14.709 6.598 14.709 14.708-6.599 14.709-14.709 14.709z" fill="#42c4d9" data-original="#000000" style="" class=""/></g></g></g></g></svg>
