<?xml version="1.0"?>
<svg xmlns="http://www.w3.org/2000/svg" xmlns:xlink="http://www.w3.org/1999/xlink" xmlns:svgjs="http://svgjs.com/svgjs" version="1.1" width="512" height="512" x="0" y="0" viewBox="0 0 256 256" style="enable-background:new 0 0 512 512" xml:space="preserve" class=""><g><g xmlns="http://www.w3.org/2000/svg"><g fill="#f9b087"><path d="m47.601 66.488c-.73 0-1.454-.318-1.948-.931-9.542-11.836-5.867-27.595-5.706-28.259.245-1.009 1.087-1.762 2.117-1.892.591-.074 14.646-1.737 27.401 6.111 1.176.724 1.542 2.264.819 3.439-.725 1.176-2.265 1.542-3.439.819-8.762-5.392-18.42-5.678-22.349-5.533-.576 4.078-1.235 14.38 5.049 22.176.867 1.075.698 2.648-.377 3.515-.462.374-1.017.555-1.567.555z" fill="#25a6bb" data-original="#f9b087" style="" class=""/><path d="m180.114 66.488c-.551 0-1.105-.181-1.567-.554-1.075-.867-1.244-2.44-.377-3.515 6.281-7.792 5.626-18.087 5.049-22.171-3.938-.146-13.626.16-22.349 5.528-1.176.722-2.716.356-3.439-.819-.723-1.176-.357-2.716.819-3.439 12.753-7.848 26.809-6.186 27.4-6.111 1.03.13 1.873.883 2.117 1.892.161.665 3.836 16.423-5.706 28.26-.493.61-1.217.929-1.947.929z" fill="#25a6bb" data-original="#f9b087" style="" class=""/><path d="m173.546 214.238h-34.35c-1.381 0-2.5-1.119-2.5-2.5v-22.056c0-1.381 1.119-2.5 2.5-2.5s2.5 1.119 2.5 2.5v19.556h31.85c1.381 0 2.5 1.119 2.5 2.5s-1.119 2.5-2.5 2.5z" fill="#25a6bb" data-original="#f9b087" style="" class=""/><path d="m223.955 214.238h-19.017c-1.381 0-2.5-1.119-2.5-2.5s1.119-2.5 2.5-2.5h16.517v-89.073c0-1.381 1.119-2.5 2.5-2.5s2.5 1.119 2.5 2.5v91.573c0 1.381-1.119 2.5-2.5 2.5z" fill="#25a6bb" data-original="#f9b087" style="" class=""/><path d="m179.747 141.938c-.64 0-1.28-.244-1.768-.732l-4.408-4.408c-.977-.976-.977-2.559 0-3.535.976-.977 2.56-.977 3.535 0l4.408 4.408c.977.976.977 2.559 0 3.535-.487.487-1.127.732-1.767.732z" fill="#25a6bb" data-original="#f9b087" style="" class=""/><path d="m169.923 151.762c-.64 0-1.28-.244-1.768-.732l-4.407-4.408c-.976-.976-.976-2.559 0-3.536.976-.976 2.559-.976 3.536 0l4.407 4.408c.976.976.976 2.559 0 3.536-.488.488-1.128.732-1.768.732z" fill="#25a6bb" data-original="#f9b087" style="" class=""/><path d="m160.099 161.586c-.64 0-1.28-.244-1.768-.732l-4.408-4.408c-.977-.976-.977-2.559 0-3.535.976-.977 2.56-.977 3.535 0l4.408 4.408c.977.976.977 2.559 0 3.535-.487.488-1.127.732-1.767.732z" fill="#25a6bb" data-original="#f9b087" style="" class=""/></g><g fill="#846f75"><path d="m40.595 78.685c.64 0 1.28-.244 1.768-.732.977-.976.977-2.559 0-3.535-10.978-10.979-14.757-27.902-10.464-46.61 18.707-4.293 35.631-.514 46.609 10.463.976.977 2.56.977 3.535 0 .977-.976.977-2.559 0-3.535-12.536-12.536-31.789-16.702-52.825-11.426-.895.224-1.593.922-1.817 1.817-5.275 21.034-1.11 40.289 11.426 52.825.488.488 1.128.733 1.768.733z" fill="#42c4d9" data-original="#846f75" style="" class=""/><path d="m149.206 38.271c10.978-10.977 27.9-14.756 46.609-10.463 4.293 18.708.514 35.631-10.463 46.609-.977.976-.977 2.559 0 3.535.488.488 1.128.732 1.768.732s1.28-.244 1.768-.732c12.537-12.536 16.701-31.791 11.426-52.825-.224-.895-.922-1.593-1.817-1.817-21.034-5.275-40.29-1.11-52.825 11.426-.977.976-.977 2.559 0 3.535.974.977 2.558.977 3.534 0z" fill="#42c4d9" data-original="#846f75" style="" class=""/><path d="m115.548 199.625c0-1.381-1.119-2.5-2.5-2.5-24.783 0-45.72-10.871-45.72-23.738 0-1.381-1.119-2.5-2.5-2.5s-2.5 1.119-2.5 2.5c0 16.115 22.279 28.738 50.72 28.738 1.381 0 2.5-1.119 2.5-2.5z" fill="#42c4d9" data-original="#846f75" style="" class=""/><path d="m113.048 207.561c-7.539 0-13.673 6.134-13.673 13.673s6.134 13.673 13.673 13.673 13.672-6.134 13.672-13.673-6.133-13.673-13.672-13.673zm2.5 21.975v-5.161c0-1.381-1.119-2.5-2.5-2.5s-2.5 1.119-2.5 2.5v5.161c-3.567-1.076-6.173-4.389-6.173-8.302 0-4.782 3.891-8.673 8.673-8.673s8.672 3.891 8.672 8.673c.001 3.913-2.605 7.226-6.172 8.302z" fill="#42c4d9" data-original="#846f75" style="" class=""/><path d="m113.857 182.546c5.046 0 10.087-.521 14.981-1.548 1.351-.284 2.217-1.609 1.933-2.96s-1.605-2.214-2.96-1.933c-4.557.957-9.252 1.442-13.954 1.442-22.503 0-42.46-11.066-54.751-28.03l10.999-3.164c1.327-.381 2.093-1.767 1.711-3.093-.381-1.327-1.765-2.094-3.093-1.711l-12.541 3.607c-1.727-2.82-3.256-5.775-4.562-8.846h17.793c1.381 0 2.5-1.119 2.5-2.5s-1.119-2.5-2.5-2.5h-19.667c-1.235-3.7-2.168-7.536-2.748-11.487l21.725 6.249c.231.066.463.098.692.098 1.086 0 2.086-.713 2.402-1.81.381-1.327-.385-2.712-1.712-3.094l-23.668-6.807c-.098-1.488-.166-2.985-.166-4.497 0-37.267 30.319-67.586 67.586-67.586 34.761 0 63.662 26.036 67.226 60.561.142 1.374 1.368 2.375 2.744 2.23 1.373-.142 2.372-1.37 2.23-2.744-3.828-37.083-34.867-65.047-72.2-65.047-40.024 0-72.586 32.562-72.586 72.586 0 1.017.035 2.026.077 3.034l-5.366-1.543c-1.329-.383-2.712.385-3.094 1.712-.381 1.327.385 2.712 1.712 3.094l7.166 2.061c.514 4.464 1.423 8.81 2.712 12.992h-9.188c-1.381 0-2.5 1.119-2.5 2.5s1.119 2.5 2.5 2.5h10.951c1.396 3.57 3.063 7.002 4.983 10.272l-16.624 4.778c-1.327.381-2.093 1.767-1.711 3.093.315 1.096 1.315 1.81 2.401 1.81.229 0 .461-.032.692-.098l18.033-5.187c13.097 19.046 35.031 31.566 59.842 31.566z" fill="#42c4d9" data-original="#846f75" style="" class=""/><path d="m98.699 154.52c6.443 0 12.074-3.479 15.158-8.647 3.084 5.168 8.716 8.647 15.159 8.647 1.381 0 2.5-1.119 2.5-2.5s-1.119-2.5-2.5-2.5c-6.286 0-11.502-4.61-12.48-10.624 1.715-.599 3.201-1.754 4.196-3.356l5.584-8.984c1.574-2.533 1.648-5.6.199-8.207-1.448-2.606-4.093-4.162-7.075-4.162h-11.167c-2.981 0-5.626 1.556-7.075 4.162s-1.374 5.674.2 8.206l5.583 8.984c.996 1.602 2.482 2.757 4.196 3.356-.978 6.014-6.193 10.624-12.479 10.624-1.381 0-2.5 1.119-2.5 2.5s1.12 2.501 2.501 2.501zm6.946-30.604c-.602-.968-.63-2.141-.076-3.137s1.565-1.591 2.705-1.591h11.167c1.14 0 2.151.595 2.705 1.591s.526 2.169-.076 3.137l-5.584 8.984c-.577.929-1.535 1.461-2.628 1.461s-2.051-.533-2.628-1.461z" fill="#42c4d9" data-original="#846f75" style="" class=""/><path d="m143.325 109.585c8.683 0 15.747-7.064 15.747-15.747s-7.064-15.747-15.747-15.747-15.747 7.064-15.747 15.747 7.064 15.747 15.747 15.747zm0-26.494c5.926 0 10.747 4.821 10.747 10.747s-4.821 10.747-10.747 10.747-10.747-4.821-10.747-10.747 4.821-10.747 10.747-10.747z" fill="#42c4d9" data-original="#846f75" style="" class=""/><path d="m84.39 78.091c-8.683 0-15.747 7.064-15.747 15.747s7.064 15.747 15.747 15.747 15.747-7.064 15.747-15.747c-.001-8.683-7.065-15.747-15.747-15.747zm0 26.494c-5.926 0-10.747-4.821-10.747-10.747s4.821-10.747 10.747-10.747 10.747 4.821 10.747 10.747-4.822 10.747-10.747 10.747z" fill="#42c4d9" data-original="#846f75" style="" class=""/><path d="m158.299 126.167c.229 0 .461-.032.692-.098l13.783-3.964c1.327-.382 2.093-1.767 1.712-3.094-.382-1.326-1.766-2.092-3.094-1.712l-13.783 3.964c-1.327.382-2.093 1.767-1.712 3.094.316 1.097 1.316 1.81 2.402 1.81z" fill="#42c4d9" data-original="#846f75" style="" class=""/><path d="m201.116 191.361v-3.313c1.2-.183 2.123-1.21 2.123-2.462v-9.717c0-1.381-1.119-2.5-2.5-2.5h-23.281c-1.381 0-2.5 1.119-2.5 2.5v9.717c0 1.251.922 2.279 2.122 2.462v3.314c-3.406.498-6.033 3.43-6.033 6.972v31.009c0 3.053 2.483 5.537 5.536 5.537h25.03c3.053 0 5.536-2.484 5.536-5.537v-31.009c0-3.544-2.627-6.476-6.033-6.973zm-19.037-3.276h14.037v3.193h-14.037zm-2.122-9.717h18.281v4.717h-18.281zm22.192 50.973c0 .296-.241.537-.536.537h-25.03c-.295 0-.536-.241-.536-.537v-31.009c0-1.133.921-2.054 2.054-2.054h21.994c1.133 0 2.054.921 2.054 2.054z" fill="#42c4d9" data-original="#846f75" style="" class=""/><path d="m195.481 209.238h-3.884v-3.884c0-1.381-1.119-2.5-2.5-2.5s-2.5 1.119-2.5 2.5v3.884h-3.884c-1.381 0-2.5 1.119-2.5 2.5s1.119 2.5 2.5 2.5h3.884v3.884c0 1.381 1.119 2.5 2.5 2.5s2.5-1.119 2.5-2.5v-3.884h3.884c1.381 0 2.5-1.119 2.5-2.5s-1.119-2.5-2.5-2.5z" fill="#42c4d9" data-original="#846f75" style="" class=""/><path d="m228.004 110.62s-13.262-13.263-13.262-13.263c-2.776-2.775-7.293-2.776-10.07 0-2.776 2.776-2.775 7.293 0 10.069l.795.795-10.588 10.588s-4.702-4.702-4.702-4.703c-2.795-2.794-7.344-2.795-10.14 0-2.795 2.795-2.796 7.344 0 10.14l1.275 1.275s-36.484 36.483-36.486 36.485l-6.748 6.749c-.976.976-.976 2.559 0 3.535l2.147 2.147-5.797 5.797c-.977.976-.977 2.559 0 3.535l1.492 1.492-13.468 13.467c-.977.976-.977 2.559 0 3.535.488.488 1.128.732 1.768.732s1.28-.244 1.768-.732l13.468-13.467s1.49 1.49 1.491 1.491c.957.957 2.581.955 3.535 0l5.797-5.797s2.146 2.146 2.148 2.148c.946.946 2.578.958 3.535 0l43.234-43.234 1.919 1.919c1.354 1.354 3.155 2.101 5.07 2.101s3.716-.746 5.07-2.1 2.101-3.155 2.101-5.07-.746-3.716-2.101-5.07l-5.346-5.346 10.588-10.588s1.437 1.437 1.438 1.438c2.722 2.723 7.356 2.715 10.07 0 2.741-2.743 2.739-7.329-.001-10.068zm-85.289 74.365-2.982-2.982 4.029-4.029 2.983 2.983zm11.48-3.649-10.813-10.813 3.212-3.213 10.813 10.813zm6.748-6.747-10.813-10.814 34.718-34.718 10.813 10.813zm47.412-34.334c0 .58-.226 1.125-.636 1.535-.819.82-2.249.82-3.069 0l-21.078-21.078c-.846-.847-.847-2.224 0-3.07.423-.423.979-.634 1.535-.634s1.112.211 1.535.634l21.078 21.079c.41.409.635.954.635 1.534zm-5.981-13.951-3.959-3.959 10.588-10.588 3.958 3.959zm22.095-9.15c-.801.801-2.197.801-2.999 0l-13.262-13.262c-.827-.827-.826-2.172 0-2.999.414-.413.957-.62 1.5-.62s1.086.207 1.5.62l13.262 13.263c.4.4.621.933.621 1.499-.001.566-.221 1.098-.622 1.499z" fill="#42c4d9" data-original="#846f75" style="" class=""/></g></g></g></svg>
